<?xml version="1.0" encoding="utf-8"?>
<!-- Generator: Adobe Illustrator 28.0.0, SVG Export Plug-In . SVG Version: 6.00 Build 0)  -->
<svg version="1.1" id="Warstwa_1" xmlns="http://www.w3.org/2000/svg" xmlns:xlink="http://www.w3.org/1999/xlink" x="0px" y="0px"
	 viewBox="0 0 262.32 248.56" style="enable-background:new 0 0 262.32 248.56;" xml:space="preserve">
<style type="text/css">
	.st0{fill:#FFFFFF;}
	.st1{fill:#848587;}
	.st2{clip-path:url(#SVGID_00000134952427905387474420000010022314868567106987_);}
	.st3{fill:#818289;}
	.st4{clip-path:url(#SVGID_00000136398033251957691060000015815163687179354800_);}
	.st5{fill:#FFFFFF;stroke:#293282;stroke-miterlimit:10;}
	.st6{fill:#60668D;}
	.st7{fill:#5B6899;}
	.st8{fill:#FFFFFF;stroke:#000000;stroke-miterlimit:10;}
	.st9{fill:none;}
	.st10{fill:#61668E;}
</style>
<g>
	<rect x="32.32" y="93.92" class="st0" width="196" height="141.64"/>
	<path class="st1" d="M228.67,235.91c-30.64,3.9-63.78,5.64-95.68,6.11c-33.37,0.28-67.76-0.67-100.68-5.96l-0.44-0.07l-0.06-0.43
		c-3.12-23.48-4.07-47.17-4.43-70.82c-0.13-11.81-0.09-23.61,0.56-35.41c0.68-11.87,1.65-23.67,3.86-35.41l0.09-0.44l0.41-0.06
		c32.57-4.38,65.24-5.36,98-5.5c32.89,0.14,65.7,1.13,98.4,5.56c1.41,6.06,2.31,12.24,3.06,18.47c2.15,18.18,2.51,36.89,2.04,55.07
		C233.23,190.03,231.67,213.87,228.67,235.91L228.67,235.91z M227.97,235.21c-3.72-36.39-6.56-70.9-4.7-106.84
		c0.8-11.58,1.98-22.94,4.55-34.45l0.5,0.5c-32.57,4.37-65.24,5.36-98,5.5c-32.76-0.14-65.43-1.12-98-5.5l0.5-0.5
		c6.05,35.07,4.86,70.82,3.24,106.23c-0.69,11.83-1.62,23.64-3.24,35.41l-0.5-0.5c16.29-2.75,32.15-4.11,47.94-5.03
		C130.03,227.45,177.63,230.19,227.97,235.21L227.97,235.21z"/>
</g>
<g>
	<g id="_x3C_Powtarzanie_lustrzane_x3E__00000047743913504716746890000012133811942934928319_">
		<g>
			<g>
				<defs>
					<rect id="SVGID_1_" x="2.46" y="5.94" width="128.19" height="111.84"/>
				</defs>
				<clipPath id="SVGID_00000081631301603882909960000003668521967543741586_">
					<use xlink:href="#SVGID_1_"  style="overflow:visible;"/>
				</clipPath>
				<g style="clip-path:url(#SVGID_00000081631301603882909960000003668521967543741586_);">
					<path class="st3" d="M130.98,6.69c-18.39,21.58-39.3,40.76-60.71,59.25C48.74,84.31,26.78,102.1,3.12,117.78l-0.66-0.75
						C30.88,85.45,62.54,57.11,95.7,30.66c11.19-8.72,22.55-17.17,34.62-24.72C130.32,5.94,130.98,6.69,130.98,6.69L130.98,6.69z"/>
				</g>
			</g>
		</g>
	</g>
	<g id="_x3C_Powtarzanie_lustrzane_x3E__00000051365763863379006890000003053092846433500822_">
		<g>
			<g>
				<defs>
					<rect id="SVGID_00000145748717860024415170000011638253543554800801_" x="130.65" y="5.94" width="128.19" height="111.84"/>
				</defs>
				<clipPath id="SVGID_00000004540971772555725780000005641322729381898687_">
					<use xlink:href="#SVGID_00000145748717860024415170000011638253543554800801_"  style="overflow:visible;"/>
				</clipPath>
				<g style="clip-path:url(#SVGID_00000004540971772555725780000005641322729381898687_);">
					<path class="st3" d="M130.98,5.94c23.93,15.2,45.85,33.23,67.15,51.84c21.2,18.76,41.87,38.01,60.71,59.25l-0.66,0.75
						c-35.24-23.73-67.72-51.12-98.55-80.26c-10.2-9.86-20.15-19.93-29.31-30.83C130.32,6.69,130.98,5.94,130.98,5.94L130.98,5.94z"
						/>
				</g>
			</g>
		</g>
	</g>
</g>
<path class="st5" d="M167.67,146.03"/>
<path class="st5" d="M166.15,135.02"/>
<g>
	<ellipse class="st0" cx="100.59" cy="146.48" rx="12.99" ry="18.51"/>
	<path class="st6" d="M114.38,146.48c-0.17,6.32-2.37,13.13-7.69,16.96c-5.89,4.36-13.22,1.21-16.55-4.72
		c-5.28-8.99-4.62-22.89,4.04-29.63c6.18-4.65,13.81-1.36,17.2,4.95C113.54,137.86,114.41,142.22,114.38,146.48L114.38,146.48z
		 M112.78,146.48c-0.1-4.02-1.07-8.05-3.13-11.42c-4.73-7.95-13.53-7.89-18.14-0.01c-4.87,8.27-4.36,21.27,3.59,27.52
		c5.35,4.1,12.01,1.02,14.9-4.46C111.99,154.6,112.82,150.5,112.78,146.48L112.78,146.48z"/>
</g>
<g>
	<ellipse class="st0" cx="151.95" cy="146.36" rx="12.08" ry="18.38"/>
	<path class="st7" d="M164.82,146.36c-0.19,6.11-2.05,12.74-7,16.71c-5.75,4.65-12.72,1.18-15.75-4.77
		c-4.68-8.78-4.26-22.22,3.67-29.07c6-4.96,13.39-1.35,16.42,5C164.12,138.01,164.85,142.23,164.82,146.36L164.82,146.36z
		 M163.23,146.36c-0.18-5.68-1.87-11.83-6.39-15.46c-4.9-4.02-10.81-0.78-13.36,4.28c-4.33,8.1-4.03,20.7,3.26,27.06
		c5.19,4.34,11.43,0.95,14.03-4.5C162.56,154.24,163.26,150.26,163.23,146.36L163.23,146.36z"/>
</g>
<ellipse class="st1" cx="159.37" cy="139.4" rx="4.13" ry="6.63"/>
<ellipse class="st1" cx="108.92" cy="139.4" rx="4.13" ry="6.63"/>
<path class="st8" d="M145.99,119.54"/>
<path class="st9" d="M143.69,125.57c1.51-0.99,5.83-3.51,11.84-3.31c6.56,0.23,10.96,3.57,12.3,4.68"/>
<line class="st9" x1="98.99" y1="177.18" x2="157.69" y2="193.38"/>
<path class="st1" d="M138.69,190.87c-0.81-1.59-11.2,0.38-24.83-1.37c-15.8-2.03-25.85-7.77-26.47-7c-0.55,0.68,7.1,5.38,16.65,8.66
	c4.94,1.7,18.02,6.2,28.91,3.01C135.57,193.4,139.2,191.86,138.69,190.87z"/>
<g>
	<path class="st10" d="M86.26,124.68c5.29-6.69,16.18-8.86,22.92-3.12c0,0-0.51,0.86-0.51,0.86c-7.38-3.19-15.33-1.64-21.72,2.99
		C86.95,125.4,86.26,124.68,86.26,124.68L86.26,124.68z"/>
</g>
<g>
	<path class="st10" d="M139.44,119.29c4.83-10.24,16.05-16.19,24.42-5.89c0,0-0.73,0.68-0.73,0.68c-8.83-8.53-16.93-2.59-22.83,5.72
		C140.3,119.8,139.44,119.29,139.44,119.29L139.44,119.29z"/>
</g>
</svg>
