<?xml version="1.0" encoding="utf-8"?>
<!-- Generator: Adobe Illustrator 28.0.0, SVG Export Plug-In . SVG Version: 6.00 Build 0)  -->
<svg version="1.1" id="Warstwa_1" xmlns="http://www.w3.org/2000/svg" xmlns:xlink="http://www.w3.org/1999/xlink" x="0px" y="0px"
	 viewBox="0 0 262.71 245.02" style="enable-background:new 0 0 262.71 245.02;" xml:space="preserve">
<style type="text/css">
	.st0{fill:#FFFFFF;}
	.st1{fill:#848587;}
	.st2{clip-path:url(#SVGID_00000013181716816723217670000013524788234102560417_);}
	.st3{fill:#818289;}
	.st4{clip-path:url(#SVGID_00000072960129426085805140000009930462797653212845_);}
	.st5{fill:#818493;}
	.st6{clip-path:url(#SVGID_00000026856977728528492870000011358139569156975792_);}
	.st7{fill:#777B91;}
	.st8{clip-path:url(#SVGID_00000134250694799289335530000005461907159705304732_);}
	.st9{clip-path:url(#SVGID_00000100365285793752901310000007307727959094414472_);}
	.st10{fill:#7D8193;}
	.st11{clip-path:url(#SVGID_00000035497146392919993180000012829846018110784180_);}
	.st12{fill:#FFFFFF;stroke:#293282;stroke-miterlimit:10;}
</style>
<g>
	<rect x="34.07" y="90.98" class="st0" width="196" height="141.64"/>
	<path class="st1" d="M230.43,232.97c-30.64,3.9-63.78,5.64-95.68,6.11c-33.37,0.28-67.76-0.67-100.68-5.96c0,0-0.44-0.07-0.44-0.07
		s-0.06-0.43-0.06-0.43c-3.12-23.48-4.07-47.17-4.43-70.82c-0.13-11.81-0.09-23.61,0.56-35.41c0.68-11.87,1.65-23.67,3.86-35.41
		c0,0,0.09-0.44,0.09-0.44s0.41-0.06,0.41-0.06c32.57-4.38,65.24-5.36,98-5.5c32.89,0.14,65.7,1.13,98.4,5.56
		c1.41,6.06,2.31,12.24,3.06,18.47c2.15,18.18,2.51,36.89,2.04,55.07C234.98,187.09,233.42,210.93,230.43,232.97L230.43,232.97z
		 M229.72,232.27c-3.72-36.39-6.56-70.9-4.7-106.84c0.8-11.58,1.98-22.94,4.55-34.45c0,0,0.5,0.5,0.5,0.5
		c-32.57,4.37-65.24,5.36-98,5.5c-32.76-0.14-65.43-1.12-98-5.5c0,0,0.5-0.5,0.5-0.5c6.05,35.07,4.86,70.82,3.24,106.23
		c-0.69,11.83-1.62,23.64-3.24,35.41c0,0-0.5-0.5-0.5-0.5c16.29-2.75,32.15-4.11,47.94-5.03
		C131.78,224.51,179.38,227.25,229.72,232.27L229.72,232.27z"/>
</g>
<g>
	<g id="_x3C_Powtarzanie_lustrzane_x3E__00000119798160513101315790000007614167558913364371_">
		<g>
			<defs>
				<rect id="SVGID_1_" x="3.89" y="6.09" width="128.19" height="111.84"/>
			</defs>
			<clipPath id="SVGID_00000131350671606859491640000002873556487054784137_">
				<use xlink:href="#SVGID_1_"  style="overflow:visible;"/>
			</clipPath>
			<g style="clip-path:url(#SVGID_00000131350671606859491640000002873556487054784137_);">
				<path class="st3" d="M132.4,6.84C114.01,28.42,93.1,47.6,71.7,66.1c-21.53,18.37-43.49,36.16-67.15,51.84
					c0,0-0.66-0.75-0.66-0.75C32.31,85.6,63.96,57.26,97.13,30.81c11.19-8.72,22.55-17.17,34.62-24.72
					C131.75,6.09,132.4,6.84,132.4,6.84L132.4,6.84z"/>
			</g>
		</g>
	</g>
	<g id="_x3C_Powtarzanie_lustrzane_x3E__00000161610030687689018190000016316779290844115584_">
		<g>
			<defs>
				<rect id="SVGID_00000143607777780009741070000004654128568443672508_" x="132.07" y="6.09" width="128.19" height="111.84"/>
			</defs>
			<clipPath id="SVGID_00000170275714015499237740000015406791815793408155_">
				<use xlink:href="#SVGID_00000143607777780009741070000004654128568443672508_"  style="overflow:visible;"/>
			</clipPath>
			<g style="clip-path:url(#SVGID_00000170275714015499237740000015406791815793408155_);">
				<path class="st3" d="M132.4,6.09c23.93,15.2,45.85,33.23,67.15,51.84c21.2,18.76,41.87,38.01,60.71,59.25
					c0,0-0.66,0.75-0.66,0.75c-35.24-23.73-67.72-51.12-98.55-80.26c-10.2-9.86-20.15-19.93-29.31-30.83
					C131.75,6.84,132.4,6.09,132.4,6.09L132.4,6.09z"/>
			</g>
		</g>
	</g>
</g>
<g>
	<path class="st0" d="M83.07,206.03c10.07-18.18,29.35-29.37,50-29c19.95,0.36,38.28,11.45,48,29"/>
	<path class="st5" d="M82.64,205.79c12.38-30.48,52.21-41.58,79.34-23.39c8.77,5.7,15.79,13.97,19.53,23.39c0,0-0.87,0.48-0.87,0.48
		c-5.87-8.01-13.21-14.52-21.58-18.95c-16.71-9-37.26-9.06-53.98-0.03c-8.38,4.43-15.72,10.95-21.57,18.98
		C83.51,206.28,82.64,205.79,82.64,205.79L82.64,205.79z"/>
</g>
<g>
	<g id="_x3C_Powtarzanie_lustrzane_x3E__00000100365499966327785140000016523748292188502965_">
		<g>
			<defs>
				<rect id="SVGID_00000081633067554707164560000012099935182804941480_" x="73.61" y="135.14" width="39.4" height="21.31"/>
			</defs>
			<clipPath id="SVGID_00000077318371387973969900000004719700251429583528_">
				<use xlink:href="#SVGID_00000081633067554707164560000012099935182804941480_"  style="overflow:visible;"/>
			</clipPath>
			<g style="clip-path:url(#SVGID_00000077318371387973969900000004719700251429583528_);">
				<path class="st0" d="M74.07,138.25c3.04,7.66,10.18,12.79,18,13c9.2,0.24,17.73-6.39,20-16"/>
				<path class="st7" d="M74.54,138.07c9.98,10.18,21.6,10.5,32.4,1.47c1.5-1.22,2.95-2.67,4.65-4.4c0,0,0.97,0.23,0.97,0.23
					c1.32,4.83-0.39,10.19-3.78,14.2c-6.95,8.45-21,9.18-28.97,1.81c-3.86-3.4-6.25-8.2-6.2-12.94L74.54,138.07L74.54,138.07z"/>
			</g>
		</g>
	</g>
	<g id="_x3C_Powtarzanie_lustrzane_x3E__00000058576248608295659160000005035232819454050449_">
		<g>
			<defs>
				<rect id="SVGID_00000125574242130266142360000000369976436302576556_" x="151.14" y="135.14" width="39.4" height="21.31"/>
			</defs>
			<clipPath id="SVGID_00000085226444405283402070000002431070120740987288_">
				<use xlink:href="#SVGID_00000125574242130266142360000000369976436302576556_"  style="overflow:visible;"/>
			</clipPath>
			<g style="clip-path:url(#SVGID_00000085226444405283402070000002431070120740987288_);">
				<path class="st0" d="M190.07,138.25c-3.04,7.66-10.18,12.79-18,13c-9.2,0.24-17.73-6.39-20-16"/>
				<path class="st7" d="M190.54,138.44c0.13,10.36-10.76,18.93-21.01,18.01c-10.5-0.24-20.65-10.49-17.94-21.08
					c0,0,0.97-0.23,0.97-0.23c1.7,1.73,3.16,3.18,4.65,4.4c10.8,9.03,22.42,8.7,32.4-1.47
					C189.61,138.07,190.54,138.44,190.54,138.44L190.54,138.44z"/>
			</g>
		</g>
	</g>
</g>
<g>
	<g id="_x3C_Powtarzanie_lustrzane_x3E__00000147938821556857742810000005449949811647021707_">
		<g>
			<defs>
				<rect id="SVGID_00000151506067096972661510000011355357603595079066_" x="168.08" y="108.11" width="27.51" height="24.68"/>
			</defs>
			<clipPath id="SVGID_00000175303441952190976600000004239936603009840043_">
				<use xlink:href="#SVGID_00000151506067096972661510000011355357603595079066_"  style="overflow:visible;"/>
			</clipPath>
			<g style="clip-path:url(#SVGID_00000175303441952190976600000004239936603009840043_);">
				<path class="st0" d="M168.57,108.18c0.36,2.78,1.52,8.59,6,14c7.73,9.34,19.07,9.93,21,10"/>
				<path class="st10" d="M169.07,108.11c3.42,13.22,13.36,21.14,26.52,23.56c0,0-0.04,1-0.04,1c-10.3,1.06-21.06-4.99-25.29-14.52
					c-1.44-3.14-2.22-6.55-2.19-9.92C168.08,108.24,169.07,108.11,169.07,108.11L169.07,108.11z"/>
			</g>
		</g>
	</g>
	<g id="_x3C_Powtarzanie_lustrzane_x3E__00000052064200278414131960000003669136435947188923_">
		<g>
			<defs>
				<rect id="SVGID_00000146473770697843258200000013303784611907975866_" x="68.56" y="108.11" width="27.51" height="24.68"/>
			</defs>
			<clipPath id="SVGID_00000088135433467083023820000011598694706790912399_">
				<use xlink:href="#SVGID_00000146473770697843258200000013303784611907975866_"  style="overflow:visible;"/>
			</clipPath>
			<g style="clip-path:url(#SVGID_00000088135433467083023820000011598694706790912399_);">
				<path class="st0" d="M95.57,108.18c-0.36,2.78-1.52,8.59-6,14c-7.73,9.34-19.07,9.93-21,10"/>
				<path class="st10" d="M96.07,108.24c0.18,14.33-13.42,25.93-27.48,24.43c0,0-0.04-1-0.04-1c13.17-2.43,23.1-10.35,26.52-23.57
					C95.08,108.11,96.07,108.24,96.07,108.24L96.07,108.24z"/>
			</g>
		</g>
	</g>
</g>
<path class="st12" d="M169.1,146.18"/>
<path class="st12" d="M167.57,135.17"/>
</svg>
