<?xml version="1.0" encoding="utf-8"?>
<!-- Generator: Adobe Illustrator 28.0.0, SVG Export Plug-In . SVG Version: 6.00 Build 0)  -->
<svg version="1.1" id="Warstwa_1" xmlns="http://www.w3.org/2000/svg" xmlns:xlink="http://www.w3.org/1999/xlink" x="0px" y="0px"
	 viewBox="0 0 595.28 841.89" style="enable-background:new 0 0 595.28 841.89;" xml:space="preserve">
<style type="text/css">
	.st0{fill:#FFFFFF;}
	.st1{fill:#848587;}
	.st2{clip-path:url(#SVGID_00000149374907010456315240000013700333232018389908_);}
	.st3{fill:#818289;}
	.st4{clip-path:url(#SVGID_00000083784503197127483580000011105573341512889770_);}
	.st5{fill:#818493;}
	.st6{clip-path:url(#SVGID_00000015330334278113344080000015747768246957448369_);}
	.st7{fill:#777B91;}
	.st8{clip-path:url(#SVGID_00000115491487571539647820000006113741961036035463_);}
	.st9{clip-path:url(#SVGID_00000166675603232801203750000016360210923050251186_);}
	.st10{fill:#7D8193;}
	.st11{clip-path:url(#SVGID_00000004504316417471731750000003004387643872531098_);}
	.st12{fill:#FFFFFF;stroke:#293282;stroke-miterlimit:10;}
</style>
<g>
	<rect x="160" y="383.8" class="st0" width="196" height="141.64"/>
	<path class="st1" d="M356.35,525.79c-30.64,3.9-63.78,5.64-95.68,6.11c-33.37,0.28-67.76-0.67-100.68-5.96c0,0-0.44-0.07-0.44-0.07
		s-0.06-0.43-0.06-0.43c-3.12-23.48-4.07-47.17-4.43-70.82c-0.13-11.81-0.09-23.61,0.56-35.41c0.68-11.87,1.65-23.67,3.86-35.41
		c0,0,0.09-0.44,0.09-0.44s0.41-0.06,0.41-0.06c32.57-4.38,65.24-5.36,98-5.5c32.89,0.14,65.7,1.13,98.4,5.56
		c1.41,6.06,2.31,12.24,3.06,18.47c2.15,18.18,2.51,36.89,2.04,55.07C360.91,479.91,359.35,503.75,356.35,525.79L356.35,525.79z
		 M355.65,525.09c-3.72-36.39-6.56-70.9-4.7-106.84c0.8-11.58,1.98-22.94,4.55-34.45c0,0,0.5,0.5,0.5,0.5
		c-32.57,4.37-65.24,5.36-98,5.5c-32.76-0.14-65.43-1.12-98-5.5c0,0,0.5-0.5,0.5-0.5c6.05,35.07,4.86,70.82,3.24,106.23
		c-0.69,11.83-1.62,23.64-3.24,35.41c0,0-0.5-0.5-0.5-0.5c16.29-2.75,32.15-4.11,47.94-5.03
		C257.71,517.33,305.31,520.07,355.65,525.09L355.65,525.09z"/>
</g>
<g>
	<g id="_x3C_Powtarzanie_lustrzane_x3E__00000047743913504716746890000012133811942934928319_">
		<g>
			<defs>
				<rect id="SVGID_1_" x="129.81" y="298.91" width="128.19" height="111.84"/>
			</defs>
			<clipPath id="SVGID_00000132796243265924043910000016578222908951039935_">
				<use xlink:href="#SVGID_1_"  style="overflow:visible;"/>
			</clipPath>
			<g style="clip-path:url(#SVGID_00000132796243265924043910000016578222908951039935_);">
				<path class="st3" d="M258.33,299.66c-18.39,21.58-39.3,40.76-60.71,59.25c-21.53,18.37-43.49,36.16-67.15,51.84
					c0,0-0.66-0.75-0.66-0.75c28.42-31.58,60.08-59.92,93.24-86.37c11.19-8.72,22.55-17.17,34.62-24.72
					C257.67,298.91,258.33,299.66,258.33,299.66L258.33,299.66z"/>
			</g>
		</g>
	</g>
	<g id="_x3C_Powtarzanie_lustrzane_x3E__00000051365763863379006890000003053092846433500822_">
		<g>
			<defs>
				<rect id="SVGID_00000129201952357844299990000000707297573108230837_" x="258" y="298.91" width="128.19" height="111.84"/>
			</defs>
			<clipPath id="SVGID_00000086682848025596115340000010949837437489848997_">
				<use xlink:href="#SVGID_00000129201952357844299990000000707297573108230837_"  style="overflow:visible;"/>
			</clipPath>
			<g style="clip-path:url(#SVGID_00000086682848025596115340000010949837437489848997_);">
				<path class="st3" d="M258.33,298.91c23.93,15.2,45.85,33.23,67.15,51.84c21.2,18.76,41.87,38.01,60.71,59.25
					c0,0-0.66,0.75-0.66,0.75c-35.24-23.73-67.72-51.12-98.55-80.26c-10.2-9.86-20.15-19.93-29.31-30.83
					C257.67,299.66,258.33,298.91,258.33,298.91L258.33,298.91z"/>
			</g>
		</g>
	</g>
</g>
<g>
	<path class="st0" d="M209,498.85c10.07-18.18,29.35-29.37,50-29c19.95,0.36,38.28,11.45,48,29"/>
	<path class="st5" d="M208.56,498.61c12.38-30.48,52.21-41.58,79.34-23.39c8.77,5.7,15.79,13.97,19.53,23.39
		c0,0-0.87,0.48-0.87,0.48c-5.87-8.01-13.21-14.52-21.58-18.95c-16.71-9-37.26-9.06-53.98-0.03c-8.38,4.43-15.72,10.95-21.57,18.98
		C209.44,499.1,208.56,498.61,208.56,498.61L208.56,498.61z"/>
</g>
<g>
	<g id="_x3C_Powtarzanie_lustrzane_x3E__00000068678581350814698030000017542082706643675265_">
		<g>
			<defs>
				<rect id="SVGID_00000158721315964027551660000006149345276941843854_" x="199.53" y="427.96" width="39.4" height="21.31"/>
			</defs>
			<clipPath id="SVGID_00000095331786126266743670000004693687425574530490_">
				<use xlink:href="#SVGID_00000158721315964027551660000006149345276941843854_"  style="overflow:visible;"/>
			</clipPath>
			<g style="clip-path:url(#SVGID_00000095331786126266743670000004693687425574530490_);">
				<path class="st0" d="M200,431.07c3.04,7.66,10.18,12.79,18,13c9.2,0.24,17.73-6.39,20-16"/>
				<path class="st7" d="M200.46,430.89c9.98,10.18,21.6,10.5,32.4,1.47c1.5-1.22,2.95-2.67,4.65-4.4c0,0,0.97,0.23,0.97,0.23
					c1.32,4.83-0.39,10.19-3.78,14.2c-6.95,8.45-21,9.18-28.97,1.81c-3.86-3.4-6.25-8.2-6.2-12.94L200.46,430.89L200.46,430.89z"/>
			</g>
		</g>
	</g>
	<g id="_x3C_Powtarzanie_lustrzane_x3E__00000024697322590412534830000012108052824160062100_">
		<g>
			<defs>
				<rect id="SVGID_00000166654615706015558830000015809322796191646129_" x="277.07" y="427.96" width="39.4" height="21.31"/>
			</defs>
			<clipPath id="SVGID_00000045577134917257533080000012061619310611475896_">
				<use xlink:href="#SVGID_00000166654615706015558830000015809322796191646129_"  style="overflow:visible;"/>
			</clipPath>
			<g style="clip-path:url(#SVGID_00000045577134917257533080000012061619310611475896_);">
				<path class="st0" d="M316,431.07c-3.04,7.66-10.18,12.79-18,13c-9.2,0.24-17.73-6.39-20-16"/>
				<path class="st7" d="M316.46,431.26c0.13,10.36-10.76,18.93-21.01,18.01c-10.5-0.24-20.65-10.49-17.94-21.08
					c0,0,0.97-0.23,0.97-0.23c1.7,1.73,3.16,3.18,4.65,4.4c10.8,9.03,22.42,8.7,32.4-1.47
					C315.54,430.89,316.46,431.26,316.46,431.26L316.46,431.26z"/>
			</g>
		</g>
	</g>
</g>
<g>
	<g id="_x3C_Powtarzanie_lustrzane_x3E__00000024682183338296580250000001128056102983827596_">
		<g>
			<defs>
				<rect id="SVGID_00000056386861597506825480000004908871303638175663_" x="294" y="400.94" width="27.51" height="24.68"/>
			</defs>
			<clipPath id="SVGID_00000065773599993663747700000012851460391976775829_">
				<use xlink:href="#SVGID_00000056386861597506825480000004908871303638175663_"  style="overflow:visible;"/>
			</clipPath>
			<g style="clip-path:url(#SVGID_00000065773599993663747700000012851460391976775829_);">
				<path class="st0" d="M294.5,401c0.36,2.78,1.52,8.59,6,14c7.73,9.34,19.07,9.93,21,10"/>
				<path class="st10" d="M295,400.94c3.42,13.22,13.36,21.14,26.52,23.56c0,0-0.04,1-0.04,1c-10.3,1.06-21.06-4.99-25.29-14.52
					c-1.44-3.14-2.22-6.55-2.19-9.92C294,401.06,295,400.94,295,400.94L295,400.94z"/>
			</g>
		</g>
	</g>
	<g id="_x3C_Powtarzanie_lustrzane_x3E__00000166651709507770084310000007454957567969356700_">
		<g>
			<defs>
				<rect id="SVGID_00000024717696121773311270000000513715103942607501_" x="194.48" y="400.94" width="27.51" height="24.68"/>
			</defs>
			<clipPath id="SVGID_00000156565594331206062540000010082585418924720546_">
				<use xlink:href="#SVGID_00000024717696121773311270000000513715103942607501_"  style="overflow:visible;"/>
			</clipPath>
			<g style="clip-path:url(#SVGID_00000156565594331206062540000010082585418924720546_);">
				<path class="st0" d="M221.5,401c-0.36,2.78-1.52,8.59-6,14c-7.73,9.34-19.07,9.93-21,10"/>
				<path class="st10" d="M222,401.06c0.18,14.33-13.42,25.93-27.48,24.43c0,0-0.04-1-0.04-1c13.17-2.43,23.1-10.35,26.52-23.57
					C221,400.94,222,401.06,222,401.06L222,401.06z"/>
			</g>
		</g>
	</g>
</g>
<path class="st12" d="M295.02,439"/>
<path class="st12" d="M293.5,427.99"/>
</svg>
